# AST/ASF file generated using VICON BodyLanguage
# -----------------------------------------------
:version 1.10
:name VICON
:units
  mass 1.0
  length 0.45
  angle deg
:documentation
   .ast/.asf automatically generated from VICON data using
   VICON BodyBuilder and BodyLanguage model FoxedUp or BRILLIANT.MOD
:root
   order TX TY TZ RX RY RZ
   axis XYZ
   position 0 0 0  
   orientation 0 0 0 
:bonedata
  begin
     id 1 
     name lhipjoint
     direction 0.623415 -0.642378 0.445763 
     length 2.49859 
     axis 0 0 0  XYZ
  end
  begin
     id 2 
     name lfemur
     direction 0.34202 -0.939693 0  
     length 6.69689  
     axis 0 0 20  XYZ
    dof rx ry rz
    limits (-160.0 20.0)
           (-70.0 70.0)
           (-60.0 70.0)
  end
  begin
     id 3 
     name ltibia
     direction 0.34202 -0.939693 0   
     length 7.37574   
     axis 0 0 20   XYZ
    dof rx
    limits (-10.0 170.0)
  end
  begin
     id 4 
     name lfoot
     direction 0.084323 -0.231675 0.969132   
     length 2.09111   
     axis -90 7.62852e-016 20   XYZ
    dof rx rz
    limits (-45.0 90.0)
           (-70.0 20.0)
  end
  begin
     id 5 
     name ltoes
     direction 1.5357e-011 -4.21957e-011 1   
     length 1.04989   
     axis -90 7.62852e-016 20   XYZ
    dof rx
    limits (-90.0 20.0)
  end
  begin
     id 6 
     name rhipjoint
     direction -0.605402 -0.653903 0.45376   
     length 2.45455  
     axis 0 0 0  XYZ 
  end
  begin
     id 7 
     name rfemur
     direction -0.34202 -0.939693 0   
     length 6.64523   
     axis 0 0 -20   XYZ
    dof rx ry rz
    limits (-160.0 20.0)
           (-70.0 70.0)
           (-70.0 60.0)
  end
  begin
     id 8 
     name rtibia
     direction -0.34202 -0.939693 0   
     length 7.3339   
     axis 0 0 -20   XYZ
    dof rx
    limits (-10.0 170.0)
 end
 begin
     id 9 
     name rfoot
     direction -0.120854 -0.332043 0.93549   
     length 2.23135  
     axis -90 -7.62852e-016 -20   XYZ
    dof rx rz
    limits (-45.0 90.0)
           (-20.0 70.0)
  end
  begin
     id 10 
     name rtoes
     direction -1.53563e-011 -4.21914e-011 1   
     length 1.10614   
     axis -90 -7.62852e-016 -20   XYZ
    dof rx
    limits (-90.0 20.0)
  end
  begin
     id 11 
     name lowerback
     direction 0.0319682 0.998615 -0.0417941   
     length 2.02718   
     axis 0 0 0   XYZ
    dof rx ry rz
    limits (-20.0 45.0)
           (-30.0 30.0)
           (-30.0 30.0)
  end
  begin
     id 12 
     name upperback
     direction 7.63181e-005 0.995808 0.0914691   
     length 1.97539   
     axis 0 0 0   XYZ
    dof rx ry rz
    limits (-20.0 45.0)
           (-30.0 30.0)
           (-30.0 30.0)
  end
  begin
     id 13 
     name thorax
     direction -0.016423 0.993627 0.111514   
     length 2.00349   
     axis 0 0 0   XYZ
    dof rx ry rz
    limits (-20.0 45.0)
           (-30.0 30.0)
           (-30.0 30.0)
  end
  begin
     id 14 
     name lowerneck
     direction -0.174763 0.981668 -0.0760716   
     length 1.71436   
     axis 0 0 0   XYZ
    dof rx ry rz
    limits (-20.0 45.0)
           (-30.0 30.0)
           (-30.0 30.0)
  end
  begin
     id 15 
     name upperneck
     direction 0.345458 0.934587 -0.0848868   
     length 1.72805   
     axis 0 0 0   XYZ
    dof rx ry rz
    limits (-20.0 45.0)
           (-30.0 30.0)
           (-30.0 30.0)
  end
  begin
     id 16
     name head
     direction 0.13001 0.989848 -0.0574291  
     length 1.767  
     axis 0 0 0   XYZ
    dof rx ry rz
    limits (-20.0 45.0)
           (-30.0 30.0)
           (-30.0 30.0)
  end
  begin
     id 17 
     name lclavicle
     direction 0.952951 0.290122 0.0878234  
     length 3.54654  
     axis 0 0 0   XYZ
    dof ry rz
    limits (-20.0 10.0)
           (0.0 20.0)
  end
  begin
     id 18 
     name lhumerus
     direction 1 -4.48957e-011 -4.56525e-028   
     length 5.19807   
     axis 180 -30 -90   XYZ
    dof rx ry rz
    limits (-60.0 90.0)
           (-90.0 90.0)
           (-90.0 90.0)
  end
  begin
     id 19
     name lradius
     direction 1 -4.48979e-011 -2.0317e-027   
     length 3.0937   
     axis 180 -30 -90   XYZ
    dof rx
    limits (-10.0 170.0)
  end
  begin
     id 20
     name lwrist
     direction 1 -4.48953e-011 -3.05809e-027   
     length 1.54685   
     axis 8.48514e-016 90 90   XYZ
    dof ry
    limits (-180.0 0.0)
 end
  begin
     id 21 
     name lhand
     direction 1 -4.48952e-011 -6.11639e-027   
     length 0.672632   
     axis 3.9013e-015 90 90   XYZ
    dof rx rz
    limits (-90.0 90.0)
           (-45.0 45.0)
  end
  begin
     id 22 
     name lfingers
     direction 1 -4.48925e-011 -1.22426e-026   
     length 0.542293   
     axis 7.80276e-015 90 90   XYZ
    dof rx
    limits (0.0 90.0)
  end
  begin
     id 23
     name lthumb
     direction 0.707107 -6.3486e-011 0.707107   
     length 0.778628   
     axis -90 45 5.37419e-014   XYZ
    dof rx rz
    limits (-45.0 45.0)
           (-45.0 45.0)
  end
  begin
     id 24 
     name rclavicle
     direction -0.960732 0.273675 -0.0457849   
     length 3.52079  
     axis 0 0 0   XYZ 
    dof ry rz
    limits (-10.0 20.0)
           (-20.0 0.0)
  end
  begin
     id 25 
     name rhumerus
     direction -1 -4.48976e-011 -1.63613e-027  
     length 5.45222   
     axis 180 30 90   XYZ
    dof rx ry rz
    limits (-90.0 60.0)
           (-90.0 90.0)
           (-90.0 90.0)
  end
  begin
     id 26 
     name rradius
     direction -1 -4.48957e-011 -7.00033e-028   
     length 3.01284   
     axis 180 30 90   XYZ
    dof rx
    limits (-10.0 170.0)
  end
  begin
     id 27 
     name rwrist
     direction -1 -4.48983e-011 -3.05543e-027   
     length 1.50642   
     axis 8.48514e-016 -90 -90   XYZ
    dof ry
    limits (-180.0 0.0)
  end
  begin
     id 28
     name rhand
     direction -1 -4.48984e-011 -6.11072e-027   
     length 0.622296   
     axis 3.9013e-015 -90 -90   XYZ
    dof rx rz
    limits (-90.0 90.0)
           (-45.0 45.0)
  end
  begin
     id 29
     name rfingers
     direction -1 -4.48865e-011 -1.22637e-026   
     length 0.501711   
     axis 7.80276e-015 -90 -90   XYZ
    dof rx
    limits (0.0 90.0)
  end
  begin
     id 30
     name rthumb
     direction -0.707107 -6.34932e-011 0.707107   
     length 0.72036   
     axis -90 -45 -5.37419e-014   XYZ
    dof rx rz
    limits (-45.0 45.0)
           (-45.0 45.0)
  end
:hierarchy
  begin
    root lhipjoint rhipjoint lowerback
    lhipjoint lfemur
    lfemur ltibia
    ltibia lfoot
    lfoot ltoes
    rhipjoint rfemur
    rfemur rtibia
    rtibia rfoot
    rfoot rtoes
    lowerback upperback
    upperback thorax
    thorax lowerneck lclavicle rclavicle
    lowerneck upperneck
    upperneck head
    lclavicle lhumerus
    lhumerus lradius
    lradius lwrist
    lwrist lhand lthumb
    lhand lfingers
    rclavicle rhumerus
    rhumerus rradius
    rradius rwrist
    rwrist rhand rthumb
    rhand rfingers
  end

#!OML:ASF H:\Not Pregnant\Project 1\Capture day 1\Session 1\non-pregnant.ASF
:FULLY-SPECIFIED
:DEGREES
208
root 4.81077 16.1485 13.9149 14.4549 -12.576 -4.15843
lowerback 4.83547 2.40837 5.27854
upperback -4.10102 3.63089 -0.32702
thorax -6.6637 1.52874 -3.67139
lowerneck 9.98581 -8.32692 -30.3961
upperneck -0.72006 -15.5656 39.008
head 4.32427 -8.96099 19.3907
rclavicle 4.35214e-014 3.6477e-014
rhumerus -65.5913 44.1546 -97.6029
rradius 83.8779
rwrist -41.845
rhand -4.03397 -28.8152
rfingers 7.12502
rthumb 21.7213 -57.6165
lclavicle 4.35214e-014 3.6477e-014
lhumerus -60.9079 -27.5118 107.64
lradius 79.408
lwrist 42.3048
lhand -22.7974 -18.3029
lfingers 7.12502
lthumb 3.63876 11.6458
rfemur -28.1198 4.9386 21.0841
rtibia 33.2593
rfoot -17.634 7.13418
rtoes -26.4742
lfemur -31.192 -6.45049 -10.6772
ltibia 34.3684
lfoot -19.2022 -4.21981
ltoes -32.8157
209
root 4.85658 16.1488 13.912 14.2614 -13.2811 -4.18332
lowerback 4.66594 2.39073 5.23682
upperback -4.14056 3.59306 -0.349633
thorax -6.61243 1.51255 -3.66012
lowerneck 9.96999 -8.16139 -30.3186
upperneck -0.253741 -15.4123 38.8899
head 4.3617 -8.87179 19.3606
rclavicle -2.28975e-014 6.75868e-015
rhumerus -64.527 44.99 -96.4922
rradius 83.8795
rwrist -41.7896
rhand -2.44893 -28.2656
rfingers 7.12502
rthumb 23.2428 -56.8829
lclavicle -2.28975e-014 6.75868e-015
lhumerus -60.2893 -27.404 107.288
lradius 79.2863
lwrist 43.166
lhand -23.2301 -18.3136
lfingers 7.12502
lthumb 3.22093 11.6418
rfemur -27.918 5.48257 20.8224
rtibia 33.0697
rfoot -17.5725 7.2803
rtoes -26.4468
lfemur -30.6482 -5.9054 -10.9976
ltibia 34.0307
lfoot -18.7935 -4.17409
ltoes -32.4253
210
root 4.90379 16.1519 13.9072 14.1017 -13.9817 -4.20779
lowerback 4.50183 2.36094 5.19141
upperback -4.18844 3.53949 -0.37062
thorax -6.57502 1.48813 -3.64443
lowerneck 9.9396 -7.99646 -30.2247
upperneck 0.203856 -15.2523 38.7761
head 4.39646 -8.77825 19.3284
rclavicle 1.37658e-014 2.42517e-014
rhumerus -63.2788 45.8242 -95.3042
rradius 83.8334
rwrist -41.6489
rhand -0.980595 -27.686
rfingers 7.12502
rthumb 24.6508 -56.1184
lclavicle 1.37658e-014 2.42517e-014
lhumerus -59.6252 -27.2775 106.927
lradius 79.0958
lwrist 43.8877
lhand -23.6992 -18.3929
lfingers 7.12502
lthumb 2.76786 11.5689
rfemur -27.7436 6.01916 20.5554
rtibia 32.8332
rfoot -17.4757 7.44664
rtoes -26.3731
lfemur -30.1825 -5.32769 -11.3253
ltibia 33.7639
lfoot -18.4005 -4.12366
ltoes -31.7763
211
root 4.9523 16.1565 13.9002 13.9787 -14.6795 -4.22726
lowerback 4.3449 2.31906 5.13377
upperback -4.24504 3.46964 -0.391191
thorax -6.55325 1.45553 -3.62093
lowerneck 9.88276 -7.83675 -30.1111
upperneck 0.661701 -15.091 38.6612
head 4.4345 -8.68151 19.2886
rclavicle -5.3001e-014 3.57812e-015
rhumerus -61.8644 46.6456 -94.0521
rradius 83.7559
rwrist -41.445
rhand 0.269808 -27.1087
rfingers 7.12502
rthumb 25.8488 -55.3721
lclavicle -5.3001e-014 3.57812e-015
lhumerus -58.9192 -27.1213 106.554
lradius 78.8284
lwrist 44.4217
lhand -24.191 -18.4939
lfingers 7.12502
lthumb 2.29293 11.4735
rfemur -27.6095 6.55872 20.2747
rtibia 32.5625
rfoot -17.3538 7.61411
rtoes -26.2898
lfemur -29.79 -4.74489 -11.6548
ltibia 33.5174
lfoot -18.0401 -4.02415
ltoes -31.2621
212
root 5.00216 16.1627 13.8911 13.8979 -15.3907 -4.23448
lowerback 4.19473 2.27145 5.05189
upperback -4.31523 3.39123 -0.412828
thorax -6.55173 1.41887 -3.58531
lowerneck 9.79881 -7.68326 -29.9815
upperneck 1.12008 -14.9302 38.5437
head 4.47712 -8.5824 19.2407
rclavicle -4.83544e-014 -3.61788e-014
rhumerus -60.3024 47.4445 -92.7487
rradius 83.6548
rwrist -41.2125
rhand 1.23517 -26.5876
rfingers 7.12502
rthumb 26.7729 -54.713
lclavicle -4.83544e-014 -3.61788e-014
lhumerus -58.1795 -26.9299 106.167
lradius 78.4854
lwrist 44.771
lhand -24.6456 -18.5231
lfingers 7.12502
lthumb 1.85382 11.4486
rfemur -27.5332 7.09598 19.9699
rtibia 32.2719
rfoot -17.2098 7.79609
rtoes -26.202
lfemur -29.4625 -4.16881 -11.9913
ltibia 33.2536
lfoot -17.6924 -3.89801
ltoes -31.0104
